<svg xmlns="http://www.w3.org/2000/svg" viewBox="0 0 192 74">
   <path fill="#f6c82b" d="M146.102 20.764c-25.449-1.704-50.897-3.404-76.345-5.108 6.977-2.03 13.954-4.06 20.93-6.095 17.041.335 39.41 2.556 55.415 11.203M189.741 44.338l-8.265-4.72c-3.628.424-7.32.928-11.062 1.517-18.621 2.921-30.302 6.688-51.25 6.767-17 .059-30.554-2.324-39.214-4.3 4.933.246 29.396 1.378 47.745-.554 5.512-.584 11.468-1.434 11.468-1.434 8.591-1.255 14.691-2.565 19.62-3.46A213.39 213.39 0 0 1 174.95 35.9l-1.344-.771c-5.705-3.258-18.829-10.786-19.753-11.275-.025-.015-.04-.02-.064-.035-24.246-1.36-48.492-2.709-72.738-4.068-.07.024-.143.05-.217.069-1.567-.114-3.134-.232-4.716-.341-.04-.005-.084 0-.124-.005a1102.459 1102.459 0 0 0-52.105-2.442A1100.18 1100.18 0 0 0 0 16.726C3.41 19.286 15.946 33.25 24.918 41.5c.707.648 1.414 1.27 1.913 1.71.435.381 11.107 11.044 15.329 15.468a188.752 188.752 0 0 0 36.603 5.516c30.737 1.572 56.04-4.725 72.822-10.553 3.371-1.345 6.18-2.155 7.949-2.768 3.603-1.246 11.389-2.961 30.014-4.988l2.452-.257-2.259-1.29"/>
</svg>